<?xml version="1.0" encoding="UTF-8"?>
<svg id="Layer_1" xmlns="http://www.w3.org/2000/svg" version="1.1" xmlns:xlink="http://www.w3.org/1999/xlink" viewBox="0 0 512 512">
  <!-- Generator: Adobe Illustrator 30.3.0, SVG Export Plug-In . SVG Version: 2.1.3 Build 182)  -->
  <defs>
    <style>
      .st0 {
        font-family: Arial-Black, Arial;
        font-size: 280px;
        font-weight: 800;
        opacity: .9;
      }

      .st0, .st1 {
        fill: #f59e0b;
        isolation: isolate;
      }

      .st2 {
        fill: url(#linear-gradient1);
      }

      .st1 {
        opacity: .9;
      }

      .st3 {
        fill: #c8ff00;
        fill-rule: evenodd;
      }

      .st4 {
        fill: url(#linear-gradient);
      }
    </style>
    <linearGradient id="linear-gradient" x1="0" y1="512" x2="1" y2="511" gradientTransform="translate(0 262144) scale(512 -512)" gradientUnits="userSpaceOnUse">
      <stop offset="0" stop-color="#7c3aed"/>
      <stop offset="1" stop-color="#4f46e5"/>
    </linearGradient>
    <linearGradient id="linear-gradient1" x1="-31.6" y1="543.6" x2="543.6" y2="-31.6" gradientUnits="userSpaceOnUse">
      <stop offset="0" stop-color="#444"/>
      <stop offset="1" stop-color="#000"/>
    </linearGradient>
  </defs>
  <rect class="st4" width="512" height="512" rx="96" ry="96"/>
  <text class="st0" transform="translate(139.4 360)"><tspan x="0" y="0">H</tspan></text>
  <polygon class="st1" points="256 40 268 72 302 72 276 92 286 124 256 104 226 124 236 92 210 72 244 72 256 40"/>
  <rect class="st2" width="512" height="512"/>
  <path class="st3" d="M192.2,361.5v14.9c0,12.2,9.9,22,22,22h83.6c12.2,0,22-9.9,22-22v-14.9h0c.1-17.9,10.2-29.7,22.1-45.6,12.3-16.5,18.5-52.8,18.5-52.8,62.5,1.9,83.3-45.4,93.6-56.4,10.4-11,2.6-17.8,2.6-17.8,0,0-19.8-19.1-29.5-30.8-9.7-11.7-27.9-21.1-34.7-24.3-6.8-3.2-17.2-12-27.2-16.2-10-4.2-15.4-4.4-32.7-3.6-17.3.8-21.4,6.2-26.2,16.2-4.9,10,2.3,12.2,4.5,13.9,2.2,1.6,7.2,6.3,8.5,7.9,3.2,3.9,6.3-3.2,15.8-3.8,5.2-.3,11.5-4.5,14.7-8.4,3.2-3.9,8.3-1.8,8.3-1.8,0,0,13.9,14.4,17.7,23.5,3.7,9.1,19.3,31.1,19.3,31.1-31.3-10.5-37.1,11.8-37.1,11.8-16.4-8.6-36.8,8.4-49.7,13.6-13,5.2-20.3-3.2-24.8-9.6-4.5-6.3,4.5-24.8,8.4-31.8,4-7,3.2-10.6,2.9-15.2-.3-4.7-3.9-4.2-3.9-4.2-.3-32.4-11.3-34.7-17.2-39.2-6.4-5-28.6-5-35,0-5.8,4.5-16.9,6.8-17.2,39.2,0,0-3.6-.4-3.9,4.2s-1.1,8.2,2.9,15.2c4,7,13,25.5,8.4,31.8-4.5,6.3-11.8,14.7-24.8,9.6-13-5.2-33.4-22.2-49.7-13.6,0,0-5.8-22.4-37.1-11.8,0,0,15.6-22,19.3-31.1,3.7-9.1,17.7-23.5,17.7-23.5,0,0,5-2.1,8.3,1.8,3.2,3.9,9.6,8.1,14.7,8.4,9.5.6,12.6,7.7,15.8,3.8,1.3-1.6,6.3-6.2,8.5-7.9,2.2-1.6,9.3-3.8,4.5-13.9-4.9-10-8.9-15.4-26.2-16.2-17.3-.8-22.7-.6-32.7,3.6-10,4.2-20.4,13-27.2,16.2-6.8,3.2-25,12.6-34.7,24.3-9.7,11.7-29.5,30.8-29.5,30.8,0,0-7.8,6.8,2.6,17.8,10.4,11,31.1,58.3,93.6,56.4,0,0,6.2,36.3,18.5,52.8,11.9,15.9,21.9,27.6,22.1,45.6h0Z"/>
</svg>