<?xml version="1.0" encoding="UTF-8"?>
<svg id="Layer_1" xmlns="http://www.w3.org/2000/svg" version="1.1" viewBox="0 0 512 512">
  <!-- Generator: Adobe Illustrator 30.3.0, SVG Export Plug-In . SVG Version: 2.1.3 Build 182)  -->
  <defs>
    <style>
      .st0 {
        fill: #c8ff00;
        fill-rule: evenodd;
      }
    </style>
  </defs>
  <path class="st0" d="M176.6,387.2v18.5c0,15.1,12.3,27.4,27.4,27.4h104c15.1,0,27.4-12.3,27.4-27.4v-18.5h0c.2-22.3,12.7-36.9,27.5-56.7,15.3-20.6,23-65.7,23-65.7,77.8,2.4,103.6-56.5,116.5-70.2,12.9-13.7,3.2-22.2,3.2-22.2,0,0-24.6-23.8-36.7-38.3-12.1-14.5-34.7-26.2-43.1-30.2-8.5-4-21.4-14.9-33.9-20.2-12.5-5.2-19.2-5.4-40.7-4.4-21.6,1-26.6,7.7-32.7,20.2-6,12.5,2.8,15.2,5.5,17.2,2.7,2,9,7.8,10.6,9.8,4,4.9,7.8-4,19.6-4.7,6.5-.4,14.3-5.6,18.3-10.5,4-4.8,10.3-2.2,10.3-2.2,0,0,17.3,17.9,22,29.2,4.6,11.3,24,38.7,24,38.7-38.9-13.1-46.2,14.7-46.2,14.7-20.4-10.7-45.8,10.5-61.9,16.9-16.1,6.5-25.2-4-30.8-11.9-5.6-7.9,5.5-30.8,10.5-39.6,4.9-8.8,4-13.2,3.6-19-.4-5.8-4.8-5.2-4.8-5.2-.4-40.3-14.1-43.1-21.4-48.8-8-6.2-35.5-6.2-43.5,0-7.3,5.6-21,8.5-21.4,48.8,0,0-4.4-.6-4.8,5.2s-1.3,10.2,3.6,19c4.9,8.8,16.1,31.8,10.5,39.6-5.6,7.9-14.7,18.3-30.8,11.9-16.1-6.5-41.5-27.6-61.9-16.9,0,0-7.3-27.8-46.2-14.7,0,0,19.4-27.4,24-38.7,4.6-11.3,22-29.2,22-29.2,0,0,6.3-2.6,10.3,2.2,4,4.8,11.9,10.1,18.3,10.5,11.8.7,15.6,9.5,19.6,4.7,1.6-2,7.9-7.8,10.6-9.8,2.7-2,11.6-4.7,5.5-17.2-6-12.5-11.1-19.2-32.7-20.2-21.6-1-28.2-.8-40.7,4.4-12.5,5.2-25.4,16.1-33.9,20.2-8.5,4-31,15.7-43.1,30.2-12.1,14.5-36.7,38.3-36.7,38.3,0,0-9.7,8.5,3.2,22.2,12.9,13.7,38.7,72.6,116.5,70.2,0,0,7.7,45.2,23,65.7,14.8,19.8,27.3,34.4,27.5,56.7h0Z"/>
</svg>